<svg width="360" height="800" viewBox="0 0 360 800" fill="none" xmlns="http://www.w3.org/2000/svg">
<path d="M212.647 90.9497C278 92.3876 251.518 30.9157 230.108 0H0V307C15.7978 280.158 62.6093 227.841 123.472 233.306C184.336 238.77 173.776 190.767 160.888 166.082C150.911 140.439 147.294 89.5117 212.647 90.9497Z" fill="#931818"/>
<path d="M139.151 705.575C71.1539 704.118 98.7429 768.007 121.037 800.134L360.451 800L360.273 480.852C343.852 508.765 295.177 563.179 231.849 557.534C168.522 551.889 179.536 601.786 192.959 627.44C203.355 654.092 207.148 707.032 139.151 705.575Z" fill="#312222"/>
</svg>
